<svg id="Layer_1" data-name="Layer 1" xmlns="http://www.w3.org/2000/svg" viewBox="0 0 290 80"><defs><style>.cls-1{fill:#101820;}.cls-2{fill:#0b63ce;}</style></defs><path class="cls-1" d="M102.38,56.82H78.62v-49a.49.49,0,0,0-.49-.5H74.46a.49.49,0,0,0-.49.5V60.48a.49.49,0,0,0,.49.49h27.92a.49.49,0,0,0,.49-.49V57.32A.49.49,0,0,0,102.38,56.82Z"/><path class="cls-1" d="M137.45,21.63h-8.37v-7.8c0-5.51,1.81-8.19,5.53-8.19a10,10,0,0,1,4.35,1,.49.49,0,0,0,.41,0,.55.55,0,0,0,.28-.3l1-2.88a.49.49,0,0,0-.27-.6,14.9,14.9,0,0,0-5.79-1.34c-6.44,0-10,4.27-10,12v8.07l-4.81.3a.49.49,0,0,0-.46.49v2.75a.49.49,0,0,0,.49.49h4.78V60.48a.49.49,0,0,0,.49.49h3.53a.49.49,0,0,0,.49-.49V25.7h8.37a.49.49,0,0,0,.5-.49V22.13A.5.5,0,0,0,137.45,21.63Z"/><path class="cls-1" d="M155.63,20.67c-8.34,0-17.21,7.26-17.21,20.7,0,12.11,7.49,20.56,18.22,20.56A21.46,21.46,0,0,0,169,58.09a.51.51,0,0,0,.18-.66l-1.46-2.68a.48.48,0,0,0-.32-.25.52.52,0,0,0-.4.08,16.67,16.67,0,0,1-10,3.31c-8.08,0-13.63-6.25-13.94-15.61h27.07a.49.49,0,0,0,.49-.41,17.45,17.45,0,0,0,.21-3C170.81,27.49,165.13,20.67,155.63,20.67ZM143.06,38.39c.9-8.08,6-13.68,12.61-13.68,6.85,0,10.69,4.85,10.82,13.68Z"/><path class="cls-1" d="M196.35,21.52a8.51,8.51,0,0,0-4-.85c-4,0-7.78,2.55-10.67,7.22l-.31-5.79a.49.49,0,0,0-.49-.47h-3a.49.49,0,0,0-.49.5V60.48a.49.49,0,0,0,.49.49h3.53a.49.49,0,0,0,.49-.49v-26c2.45-6,6.08-9.48,10-9.48a8.27,8.27,0,0,1,3.3.61.47.47,0,0,0,.4,0,.52.52,0,0,0,.25-.31l.8-3.19A.52.52,0,0,0,196.35,21.52Z"/><path class="cls-1" d="M228,21.63h-3.08a.5.5,0,0,0-.5.46l-.2,2.9c-3.31-2.61-6.54-4.32-11.09-4.32-10.16,0-17.54,8.71-17.54,20.7,0,12.88,6.11,20.56,16.36,20.56,4.21,0,8.44-1.9,12.25-5.49l.32,4.08A.49.49,0,0,0,225,61h3a.49.49,0,0,0,.49-.49V22.13A.49.49,0,0,0,228,21.63Zm-4,7.83V51.78c-4.13,4.17-7.69,6-11.52,6-7.63,0-12.18-6.15-12.18-16.45,0-9.29,5.71-16.57,13-16.57C217,24.79,220.22,26.19,224,29.46Z"/><path class="cls-1" d="M266.21,21.84a.52.52,0,0,0-.41-.21h-3.61a.48.48,0,0,0-.46.34l-8.17,24.1c-.43,1.28-.88,2.68-1.34,4.13-.63,2-1.28,4-1.93,5.83-.8-2-1.63-4.18-2.44-6.29-.49-1.29-1-2.54-1.41-3.69L237.19,22a.49.49,0,0,0-.46-.32h-3.82a.5.5,0,0,0-.45.68l15.68,38.91-1,3.16c-1.49,4.49-4.33,9.84-9.35,9.84a9.19,9.19,0,0,1-3-.59.51.51,0,0,0-.4,0,.52.52,0,0,0-.25.31L233.36,77a.51.51,0,0,0,.27.58,10.52,10.52,0,0,0,4.12.84c5.92,0,10.54-4.49,13.38-13l15.14-43.18A.51.51,0,0,0,266.21,21.84Z"/><rect class="cls-1" x="108.27" y="21.63" width="4.52" height="39.34" rx="0.49"/><rect class="cls-1" x="107.63" y="7.19" width="5.79" height="5.79" rx="1.1"/><path class="cls-1" d="M280.16,15.14A5.86,5.86,0,1,0,286,21,5.86,5.86,0,0,0,280.16,15.14Zm0,10.8a4.95,4.95,0,1,1,4.95-5A5,5,0,0,1,280.16,25.94Z"/><path class="cls-1" d="M279.27,21.84h.93L281.36,24h1.26l-1.3-2.28a1.75,1.75,0,0,0,1.23-1.78c0-1.4-1-1.86-2.31-1.86h-2.1V24h1.13Zm0-2.91h.86c.85,0,1.3.25,1.3,1s-.45,1-1.3,1h-.86Z"/><path class="cls-2" d="M54,7.18H8a4,4,0,0,0-4,4v46a4,4,0,0,0,4,4H54a4,4,0,0,0,4-4v-46A4,4,0,0,0,54,7.18Zm-34,35a1,1,0,0,1-1,1H13a1,1,0,0,1-1-1v-6a1,1,0,0,1,1-1h6a1,1,0,0,1,1,1Zm0-10a1,1,0,0,1-1,1H13a1,1,0,0,1-1-1v-6a1,1,0,0,1,1-1h6a1,1,0,0,1,1,1Zm0-10a1,1,0,0,1-1,1H13a1,1,0,0,1-1-1v-6a1,1,0,0,1,1-1h6a1,1,0,0,1,1,1Zm10,30a1,1,0,0,1-1,1H23a1,1,0,0,1-1-1v-6a1,1,0,0,1,1-1h6a1,1,0,0,1,1,1Zm0-20a1,1,0,0,1-1,1H23a1,1,0,0,1-1-1v-6a1,1,0,0,1,1-1h6a1,1,0,0,1,1,1Zm0-10a1,1,0,0,1-1,1H23a1,1,0,0,1-1-1v-6a1,1,0,0,1,1-1h6a1,1,0,0,1,1,1Zm10,30a1,1,0,0,1-1,1H33a1,1,0,0,1-1-1v-6a1,1,0,0,1,1-1h6a1,1,0,0,1,1,1Zm0-10a1,1,0,0,1-1,1H33a1,1,0,0,1-1-1v-6a1,1,0,0,1,1-1h6a1,1,0,0,1,1,1Zm0-20a1,1,0,0,1-1,1H33a1,1,0,0,1-1-1v-6a1,1,0,0,1,1-1h6a1,1,0,0,1,1,1Zm10,30a1,1,0,0,1-1,1H43a1,1,0,0,1-1-1v-6a1,1,0,0,1,1-1h6a1,1,0,0,1,1,1Zm0-10a1,1,0,0,1-1,1H43a1,1,0,0,1-1-1v-6a1,1,0,0,1,1-1h6a1,1,0,0,1,1,1Zm0-10a1,1,0,0,1-1,1H43a1,1,0,0,1-1-1v-6a1,1,0,0,1,1-1h6a1,1,0,0,1,1,1Z"/></svg>